<svg width="30" height="35" viewBox="0 0 30 35" fill="none" xmlns="http://www.w3.org/2000/svg">
<path id="Vector" d="M17.5 9.29688V0H1.875C0.835938 0 0 0.731445 0 1.64062V33.3594C0 34.2686 0.835938 35 1.875 35H28.125C29.1641 35 30 34.2686 30 33.3594V10.9375H19.375C18.3438 10.9375 17.5 10.1992 17.5 9.29688ZM12.5 27.6172C12.5 28.3486 11.4922 28.7109 10.8984 28.1982L8.125 25.7031H5.9375C5.42188 25.7031 5 25.334 5 24.8828V21.0547C5 20.6035 5.42188 20.2344 5.9375 20.2344H8.125L10.8984 17.7393C11.4922 17.2197 12.5 17.5889 12.5 18.3203V27.6172ZM15.0938 24.3633C15.8047 23.7275 15.8047 22.7158 15.0938 22.0801C13.3672 20.5215 16.0469 18.2383 17.7812 19.79C19.9062 21.6973 19.9062 24.7393 17.7812 26.6533C16.0781 28.1777 13.3359 25.9424 15.0938 24.3633ZM21.8125 16.3584C26.0625 20.1797 26.0625 26.2568 21.8125 30.085C20.1094 31.6162 17.3594 29.3809 19.125 27.7949C21.9531 25.252 21.9609 21.1982 19.125 18.6484C17.3984 17.0898 20.0859 14.7998 21.8125 16.3584ZM30 8.33301V8.75H20V0H20.4766C20.9766 0 21.4531 0.170898 21.8047 0.478516L29.4531 7.17773C29.8047 7.48535 30 7.90234 30 8.33301Z" fill="#454545"/>
</svg>
