<svg width="36" height="35" viewBox="0 0 36 35" fill="none" xmlns="http://www.w3.org/2000/svg">
<path id="Vector" d="M36 24.6094V1.64062C36 0.731445 35.1402 0 34.0714 0H7.71429C3.45536 0 0 2.93945 0 6.5625V28.4375C0 32.0605 3.45536 35 7.71429 35H34.0714C35.1402 35 36 34.2686 36 33.3594V32.2656C36 31.7529 35.7188 31.2881 35.2848 30.9873C34.9473 29.9346 34.9473 26.9336 35.2848 25.8809C35.7188 25.5869 36 25.1221 36 24.6094ZM10.2857 9.16016C10.2857 8.93457 10.5027 8.75 10.7679 8.75H27.8036C28.0688 8.75 28.2857 8.93457 28.2857 9.16016V10.5273C28.2857 10.7529 28.0688 10.9375 27.8036 10.9375H10.7679C10.5027 10.9375 10.2857 10.7529 10.2857 10.5273V9.16016ZM10.2857 13.5352C10.2857 13.3096 10.5027 13.125 10.7679 13.125H27.8036C28.0688 13.125 28.2857 13.3096 28.2857 13.5352V14.9023C28.2857 15.1279 28.0688 15.3125 27.8036 15.3125H10.7679C10.5027 15.3125 10.2857 15.1279 10.2857 14.9023V13.5352ZM30.6482 30.625H7.71429C6.29196 30.625 5.14286 29.6475 5.14286 28.4375C5.14286 27.2344 6.3 26.25 7.71429 26.25H30.6482C30.4955 27.4189 30.4955 29.4561 30.6482 30.625Z" fill="#454545"/>
</svg>
