<svg width="10" height="11" viewBox="0 0 10 11" fill="none" xmlns="http://www.w3.org/2000/svg">
<path id="Vector" d="M9.16875 6.49354L9.98946 2.43104C10.0487 2.13771 9.85054 1.8584 9.58316 1.8584H2.76403L2.6049 0.983203C2.56524 0.765059 2.39462 0.608398 2.19668 0.608398H0.416667C0.186545 0.608398 0 0.818262 0 1.07715V1.38965C0 1.64854 0.186545 1.8584 0.416667 1.8584H1.62991L2.8495 8.56611C2.55773 8.75488 2.36111 9.10883 2.36111 9.51465C2.36111 10.1187 2.79639 10.6084 3.33333 10.6084C3.87028 10.6084 4.30556 10.1187 4.30556 9.51465C4.30556 9.20852 4.19363 8.93193 4.01347 8.7334H7.65318C7.47304 8.93193 7.36111 9.20852 7.36111 9.51465C7.36111 10.1187 7.79639 10.6084 8.33334 10.6084C8.87028 10.6084 9.30556 10.1187 9.30556 9.51465C9.30556 9.0816 9.08181 8.70738 8.75731 8.53018L8.85309 8.05604C8.91235 7.76271 8.71417 7.4834 8.44679 7.4834H3.78675L3.67313 6.8584H8.76245C8.957 6.8584 9.12564 6.70695 9.16875 6.49354Z" fill="#F6623E"/>
</svg>
