<svg width="30" height="24" viewBox="0 0 30 24" fill="none" xmlns="http://www.w3.org/2000/svg">
<g id="flag-for-flag-nigeria 1">
<path id="Vector" d="M3.33333 3.41943C2.44928 3.41943 1.60143 3.68859 0.976311 4.1677C0.351189 4.64681 0 5.29662 0 5.97418L0 17.4706C0 18.1481 0.351189 18.7979 0.976311 19.277C1.60143 19.7561 2.44928 20.0253 3.33333 20.0253H10V3.41943H3.33333Z" fill="#009A49"/>
<path id="Vector_2" d="M10.0127 3.4165H20.0127V20.0224H10.0127V3.4165Z" fill="#EEEEEE"/>
<path id="Vector_3" d="M26.6667 3.41943H20V20.0253H26.6667C27.5507 20.0253 28.3986 19.7561 29.0237 19.277C29.6488 18.7979 30 18.1481 30 17.4706V5.97418C30 5.29662 29.6488 4.64681 29.0237 4.1677C28.3986 3.68859 27.5507 3.41943 26.6667 3.41943Z" fill="#009A49"/>
</g>
</svg>
