<svg width="40" height="30" viewBox="0 0 40 30" fill="none" xmlns="http://www.w3.org/2000/svg">
<path id="Vector" d="M8.00056 5.625C9.65673 5.625 11.0004 4.36523 11.0004 2.8125C11.0004 1.25977 9.65673 0 8.00056 0C6.34439 0 5.0007 1.25977 5.0007 2.8125C5.0007 4.36523 6.34439 5.625 8.00056 5.625ZM31.9994 5.625C33.6556 5.625 34.9993 4.36523 34.9993 2.8125C34.9993 1.25977 33.6556 0 31.9994 0C30.3433 0 28.9996 1.25977 28.9996 2.8125C28.9996 4.36523 30.3433 5.625 31.9994 5.625ZM39.8553 27.4277L37.1054 20.9824L34.5368 23.7012L34.4118 24.7676L36.143 28.8223C36.4555 29.5547 37.2054 30 37.9992 30C38.2491 30 38.4991 29.959 38.7429 29.8652C39.7678 29.4785 40.2678 28.3887 39.8553 27.4277ZM37.7179 15.1348L36.5617 10.4355C36.2742 9.26367 35.3993 8.2793 34.2181 7.80469C33.0619 7.33594 31.7807 7.41211 30.712 7.99805C29.2933 8.7832 28.2309 10.0195 27.7059 11.4785L26.9997 13.4648L25.9997 14.0625V8.4375C25.9997 7.92188 25.5497 7.5 24.9998 7.5H15.0002C14.4503 7.5 14.0003 7.92188 14.0003 8.4375V14.0625L12.9941 13.4648L12.2879 11.4785C11.7691 10.0137 10.7004 8.7832 9.28175 7.99805C8.2068 7.41211 6.93186 7.33594 5.77567 7.80469C4.59447 8.2793 3.71951 9.26367 3.43203 10.4355L2.28208 15.1348C1.99459 16.3066 2.32583 17.5488 3.18204 18.457L7.38184 22.9043L8.01306 28.3301C8.12556 29.2852 8.98802 30 10.0005 30C10.0755 30 10.1442 29.9941 10.2192 29.9883C11.3192 29.877 12.1066 28.9512 11.9879 27.9199L11.3567 22.4824C11.2629 21.7207 10.9254 21.0117 10.3817 20.4316L7.67558 17.5605L8.77553 13.4414L9.20051 14.6367C9.45674 15.3691 9.94422 16.0078 10.7317 16.5469L13.9253 18.4512C14.2128 18.6211 14.6815 18.7207 15.0002 18.7441H24.9998C25.3185 18.7207 25.7872 18.6211 26.0747 18.4512L29.2683 16.5469C30.0558 16.0078 30.5433 15.375 30.7995 14.6367L31.2245 13.4414L32.3244 17.5605L29.6183 20.4316C29.0746 21.0117 28.7371 21.7207 28.6433 22.4824L28.0121 27.9199C27.8934 28.9512 28.6871 29.877 29.7808 29.9883C29.8558 29.9941 29.9245 30 29.9995 30C31.0057 30 31.8744 29.291 31.9869 28.3301L32.6182 22.9043L36.818 18.457C37.6679 17.5488 38.0054 16.3066 37.7179 15.1348ZM2.89455 20.9824L0.144679 27.4277C-0.267801 28.3887 0.232175 29.4785 1.25713 29.8652C2.30708 30.252 3.45077 29.7656 3.85701 28.8223L5.58817 24.7676L5.46318 23.7012L2.89455 20.9824Z" fill="#454545"/>
</svg>
